<?xml version="1.0" encoding="utf-8"?>
<!-- Generator: Adobe Illustrator 19.0.1, SVG Export Plug-In . SVG Version: 6.00 Build 0)  -->
<svg version="1.1" id="Layer_1" xmlns="http://www.w3.org/2000/svg" xmlns:xlink="http://www.w3.org/1999/xlink" x="0px" y="0px"
	 viewBox="-107 124.7 383.3 353.3" style="enable-background:new -107 124.7 383.3 353.3;" xml:space="preserve">
<style type="text/css">
	.st0{fill:#FFFFFF;}
</style>
<g id="Layer_2">
</g>
<g>
	<circle cx="83.9" cy="301.4" r="176.7"/>
	<g>
		<path class="st0" d="M-17.9,254.8c-5.7,0-9.6-4.2-9.6-10.6c0-6.4,4.1-10.7,9.8-10.7c5.7,0,9.6,4.2,9.6,10.7
			C-8.1,250.6-12.3,254.8-17.9,254.8z M-17.8,236.7c-4,0-6.1,3.1-6.1,7.4c0,4.3,2.3,7.4,6.2,7.4c4,0,6.1-3,6.1-7.3
			C-11.6,240-13.9,236.7-17.8,236.7z"/>
		<path class="st0" d="M4.9,254.8c-1.2,0-3-0.3-4.3-0.7l-3.6,0.7v-30l3.6-0.6c0,0,0,11.6,0,11.8c1.4-1.3,3.2-2.5,5.6-2.5
			c5.6,0,8.9,4.5,8.9,10.5C15,250.1,10.9,254.8,4.9,254.8z M5.4,236.9c-1.9,0-3.5,0.7-4.8,1.9c0-0.2,0,11.3,0,11.3
			c1.2,1,2.7,1.4,4.4,1.4c4,0,6.3-3.3,6.3-7.4C11.3,239.8,9.1,236.9,5.4,236.9z"/>
		<path class="st0" d="M22.3,244.8c0.1,3.9,2.7,6.7,6.6,6.7c2.1,0,4.3-0.6,6-1.7l0.7,3.3c-1.8,1.1-4.2,1.7-6.7,1.7
			c-6,0-10.1-4.3-10.1-10.4c0-6.4,4.3-10.8,9.8-10.8c4.8,0,7.6,3,7.6,7.8c0,1.1-0.2,2.3-0.4,3.2c0,0-13.4,0.1-13.4,0.1V244.8z
			 M32.7,241.9v-0.3c0-3-1.4-4.9-4.5-4.9c-3.4,0-5.4,2.7-5.7,5.3L32.7,241.9z"/>
		<path class="st0" d="M44.7,254.1h-3.6v-20l3.6-0.6v3.5c1.4-2.2,3-3.5,5.6-3.5c1.3,0,2.7,0.3,3.7,1l-0.9,3.3
			c-1.1-0.7-2.2-0.9-3.2-0.9c-1.9,0-3.7,1.4-5.2,4.1V254.1z"/>
		<path class="st0" d="M70.9,254.1v-12.5c0-3.4-1.3-4.6-3.9-4.6c-2.3,0-4.3,1.1-5.4,2.2v15H58v-29.3l3.6-0.6c0,0,0,12,0,12.2
			c1.8-1.8,4.2-2.9,6.7-2.9c3.8,0,6.2,2.6,6.2,6.9v13.7H70.9z"/>
		<path class="st0" d="M90.9,252c-1.5,1.8-3.3,2.8-5.5,2.8c-3.7,0-6.3-2.5-6.3-5.7c0-3.6,2.6-6.7,11.9-7.1v-0.6
			c0-3.2-1.3-4.5-4.5-4.5c-2,0-4.6,1-6.4,2.2l-0.7-3.2c1.7-1.2,4.7-2.3,7.5-2.3c5.4,0,7.8,2.3,7.7,7.7v8.3c0,1.7,0.2,2,2,2l-0.2,3
			c-3.2,0.3-4.7-0.9-5.2-2.6H90.9z M90.9,244.2c-5.9,0.8-8.1,2-8.1,4.4c0,1.8,1.3,3.1,3.5,3.1c1.8,0,3.4-0.9,4.6-2.1V244.2z"/>
		<path class="st0" d="M102.9,244.8c0.1,3.9,2.7,6.7,6.6,6.7c2.1,0,4.3-0.6,6-1.7l0.7,3.3c-1.8,1.1-4.2,1.7-6.7,1.7
			c-6,0-10.1-4.3-10.1-10.4c0-6.4,4.3-10.8,9.8-10.8c4.8,0,7.6,3,7.6,7.8c0,1.1-0.2,2.3-0.4,3.2c0,0-13.4,0.1-13.4,0.1V244.8z
			 M113.3,241.9v-0.3c0-3-1.4-4.9-4.5-4.9c-3.4,0-5.4,2.7-5.7,5.3L113.3,241.9z"/>
		<path class="st0" d="M125.1,234.2v12.5c0,3.4,1.3,4.6,3.9,4.6c2.3,0,4.3-1.1,5.4-2.2v-15h3.6v20l-3.6,0.6c0,0,0-2.7,0-2.9
			c-1.8,1.8-4.2,2.9-6.7,2.9c-3.8,0-6.2-2.6-6.2-6.9v-13.7H125.1z"/>
		<path class="st0" d="M149.7,254.8c-2.4,0-5.1-0.7-7-1.9l0.9-3.3c1.7,1.1,4.1,1.9,6.1,1.9c2.3,0,4-1,4-2.8c0-2-2.3-2.7-4.7-3.3
			c-2.8-0.8-5.9-2.2-5.9-5.8c0-3.7,3.1-6,7.1-6c2.3,0,4.6,0.6,6.4,1.5l-0.9,3.3c-1.7-0.9-4-1.5-5.7-1.5c-2.1,0-3.5,0.9-3.5,2.5
			c0,1.9,2.1,2.6,4.6,3.2c2.9,0.8,6,2.2,6,6S154,254.8,149.7,254.8z"/>
		<path class="st0" d="M164.4,244.8c0.1,3.9,2.7,6.7,6.6,6.7c2.1,0,4.3-0.6,6-1.7l0.7,3.3c-1.8,1.1-4.2,1.7-6.7,1.7
			c-6,0-10.1-4.3-10.1-10.4c0-6.4,4.3-10.8,9.8-10.8c4.8,0,7.6,3,7.6,7.8c0,1.1-0.2,2.3-0.4,3.2c0,0-13.4,0.1-13.4,0.1V244.8z
			 M174.8,241.9v-0.3c0-3-1.4-4.9-4.5-4.9c-3.4,0-5.4,2.7-5.7,5.3L174.8,241.9z"/>
		<path class="st0" d="M186.8,254.1h-3.6v-20l3.6-0.6v3.5c1.4-2.2,3-3.5,5.6-3.5c1.3,0,2.7,0.3,3.7,1l-0.9,3.3
			c-1.1-0.7-2.2-0.9-3.2-0.9c-1.9,0-3.7,1.4-5.2,4.1V254.1z"/>
		<path class="st0" d="M-24.4,294.3c-1.7,0-2.8-1.3-2.8-2.8s1.2-2.7,2.8-2.7c1.6,0,2.7,1.3,2.7,2.7S-22.8,294.3-24.4,294.3z"/>
		<path class="st0" d="M-14.6,269.3c-1.6,0-2.3-1.2-2.3-2.6s0.7-2.6,2.3-2.6c1.6,0,2.3,1.2,2.3,2.6S-13,269.3-14.6,269.3z
			 M-16.4,293.6v-20l3.6-0.6v20.6H-16.4z"/>
		<path class="st0" d="M6.6,293.6v-12.5c0-3.4-1.3-4.6-4.1-4.6c-2.1,0-4.1,1.1-5.2,2.2v15h-3.6v-20l3.6-0.6v3c1.8-1.8,4.2-3,6.5-3
			c4,0,6.4,2.6,6.4,6.9v13.7H6.6z"/>
		<path class="st0" d="M26.8,267.6c-0.9-0.4-2.2-0.9-3.2-0.9c-2,0-3,1.2-3,4.2v2.8H27l-0.1,3.2h-6.2v16.7h-3.6V277l-3.5-0.3l0.2-2.3
			l3.3-1l0-2.5c0.1-5.6,2.7-7.6,6.6-7.6c1.5,0,3,0.5,4,1C27.7,264.4,26.8,267.7,26.8,267.6z"/>
		<path class="st0" d="M38.7,294.3c-5.7,0-9.6-4.2-9.6-10.6c0-6.4,4.1-10.7,9.8-10.7c5.7,0,9.6,4.2,9.6,10.7
			C48.5,290.1,44.3,294.3,38.7,294.3z M38.7,276.3c-4,0-6.1,3.1-6.1,7.4c0,4.3,2.3,7.4,6.2,7.4c4,0,6.1-3,6.1-7.3
			C44.9,279.5,42.6,276.3,38.7,276.3z"/>
		<path class="st0" d="M55.5,293.6h-1.8v-19.8l1.8-0.6v5c1.2-2.9,3.4-5,6.1-5c1.3,0,2.4,0.4,3.3,0.8l-0.5,1.6
			c-0.7-0.4-1.7-0.8-2.9-0.8c-2.3,0-4.3,1.7-6,6.2V293.6z"/>
		<path class="st0" d="M93.2,293.6v-13.2c0-3.5-1.5-5.5-4.7-5.5c-2,0-4.2,1.1-6.2,2.9c0.1,0.6,0.2,1.4,0.2,2.4v13.4h-1.8v-13.2
			c0-3.5-1.5-5.5-4.7-5.5c-2,0-4,1-6,2.6v16.1h-1.8v-19.8l1.8-0.6c0,0,0,2.6,0,2.7c2.1-1.9,4.5-2.7,6.2-2.7c2.7,0,4.7,1.1,5.6,3.3
			c2.3-2.3,5-3.3,6.8-3.3c3.9,0,6.3,2.3,6.3,6.7v13.6H93.2z"/>
		<path class="st0" d="M112.2,290.9c-1.2,1.6-3.7,3.1-6.2,3.1c-3.5,0-6.2-2.1-6.2-5.3c0-3.7,3-6.4,12.3-7c0,0,0-1.6,0-1.8
			c0-3-1.5-5-4.9-5c-2.4,0-5.1,1.3-6.7,2.6l-0.4-1.8c1.8-1.3,4.9-2.4,7.3-2.4c3.8,0,6.5,1.8,6.5,6.5c0,0.2,0,10.8,0,10.8
			c0,1.2,0.3,2.1,2.1,2.1l-0.1,1.3C113.8,294.1,112.4,293.2,112.2,290.9L112.2,290.9z M112,283.1c-7.8,0.8-10.5,2.7-10.5,5.6
			c0,2.5,2.1,3.9,4.7,3.9c2.5,0,4.6-1.6,5.8-3.1V283.1z"/>
		<path class="st0" d="M125.2,294.3c-3.7,0-5-2.3-4.9-6.3l0.3-12.4l-2.7-0.2l0.1-1.1l2.7-0.3l0.1-4.7h1.7l-0.1,4.8h7.1l-0.1,1.5h-7
			L122,288c-0.1,3.3,0.9,4.7,3.2,4.7c1.4,0,2.8-0.5,4-1.2l0.3,1.5C128.3,293.8,126.6,294.3,125.2,294.3z"/>
		<path class="st0" d="M135.4,269c-0.8,0-1.3-0.7-1.3-1.4c0-0.7,0.5-1.3,1.3-1.3c0.8,0,1.3,0.7,1.3,1.3
			C136.7,268.3,136.2,269,135.4,269z M134.5,293.6v-19.8l1.8-0.6v20.3H134.5z"/>
		<path class="st0" d="M151.4,294.1c-5.4,0-9.6-4-9.6-10.3c0-6.3,4.4-10.5,9.8-10.5s9.6,4,9.6,10.3
			C161.2,289.9,156.8,294.1,151.4,294.1z M151.5,274.9c-4.5,0-7.9,3.7-7.9,8.8c0,5.4,3.3,8.8,7.9,8.8c4.5,0,7.9-3.7,7.9-8.8
			C159.4,278.3,156,274.9,151.5,274.9z"/>
		<path class="st0" d="M179.9,293.6v-13.2c0-3.5-1.5-5.5-4.7-5.5c-2.3,0-4.7,1.3-6.9,3.4v15.3h-1.8v-19.8l1.8-0.6v3.5
			c2.3-2.3,5.2-3.5,7.1-3.5c3.9,0,6.3,2.3,6.3,6.7v13.6H179.9z"/>
		<path class="st0" d="M-19.9,333.6c-4.8,0-7.7-3.5-7.7-7.1c0-4,3-6.4,6.9-7.9c-2.5-1.3-4.7-3.4-4.7-6.4c0-3.4,3-6.6,7.3-6.6
			c3.8,0,6.7,2.7,6.7,6.1c0,3.1-2.2,5.5-5.8,6.9c2.4,1.2,5,3.3,7.1,6l5.1-8.1h2.2l-6.4,9.2l5.8,7.2l-1.4,0.9l-5.3-6.8
			C-12.7,330.8-16.2,333.6-19.9,333.6z M-19.6,319.2c-3.3,1.4-6.3,3.7-6.3,7.2c0,2.9,2.3,5.6,6.1,5.6c3,0,6-2.4,8.6-6.1
			C-14,322.3-16.7,320.3-19.6,319.2z M-13.3,311.9c0-2.6-2.3-4.7-5.1-4.7c-3.3,0-5.3,2.3-5.3,4.9c0,3,2.5,4.9,5,6
			C-15.3,316.6-13.3,314.8-13.3,311.9z"/>
		<path class="st0" d="M12.6,308.5c-0.8,0-1.3-0.7-1.3-1.4c0-0.7,0.5-1.3,1.3-1.3s1.3,0.7,1.3,1.3C13.9,307.8,13.3,308.5,12.6,308.5
			z M11.7,333.2v-19.8l1.8-0.6v20.3H11.7z"/>
		<path class="st0" d="M33.6,333.2v-13.2c0-3.5-1.5-5.5-4.7-5.5c-2.3,0-4.7,1.3-6.9,3.4v15.3h-1.8v-19.8l1.8-0.6v3.5
			c2.3-2.3,5.2-3.5,7.1-3.5c3.9,0,6.3,2.3,6.3,6.7v13.6H33.6z"/>
		<path class="st0" d="M46.8,333.8c-3.7,0-5-2.3-4.9-6.3l0.3-12.4l-2.7-0.2l0.1-1.1l2.7-0.3l0.1-4.7h1.7l-0.1,4.8h7.1l-0.1,1.5h-7
			l-0.3,12.5c-0.1,3.3,0.9,4.7,3.2,4.7c1.4,0,2.8-0.5,4-1.2l0.3,1.5C49.9,333.3,48.2,333.8,46.8,333.8z"/>
		<path class="st0" d="M56.3,323.2c0,5,2.8,8.7,7.3,8.7c2.3,0,4.1-0.7,5.6-1.7l0.4,1.6c-1.6,1-3.7,1.7-6.1,1.7c-5.4,0-9-4.3-9-10.3
			s3.7-10.5,8.9-10.5c3.9,0,6.9,2.6,6.9,6.9c0,1-0.2,2.3-0.4,3.1l-13.6,0.1V323.2z M68.4,321.3c0.1-0.5,0.1-1,0.1-1.5
			c0-3.1-2-5.3-5.1-5.3c-3.7,0-6.3,2.8-6.9,6.8H68.4z"/>
		<path class="st0" d="M77.8,333.2h-1.8v-19.8l1.8-0.6v5c1.2-2.9,3.4-5,6.1-5c1.3,0,2.4,0.4,3.3,0.8l-0.5,1.6
			c-0.7-0.4-1.7-0.8-2.9-0.8c-2.3,0-4.3,1.7-6,6.2V333.2z"/>
		<path class="st0" d="M100.2,305.3c-0.9-0.5-1.7-0.8-3-0.8c-2.4,0-3.6,1.6-3.6,5v3.9h6.2l-0.1,1.5h-6v18.2h-1.8v-18.1l-2.9-0.2
			l0.1-1.1l2.7-0.3l0-3.8c0.1-5,2.4-6.7,5.4-6.7c1.3,0,2.5,0.3,3.3,0.8L100.2,305.3z"/>
		<path class="st0" d="M114.6,330.5c-1.2,1.6-3.7,3.1-6.2,3.1c-3.5,0-6.2-2.1-6.2-5.3c0-3.7,3-6.4,12.3-7c0,0,0-1.6,0-1.8
			c0-3-1.5-5-4.9-5c-2.4,0-5.1,1.3-6.7,2.6l-0.4-1.8c1.8-1.3,4.9-2.4,7.3-2.4c3.8,0,6.5,1.8,6.5,6.5c0,0.2,0,10.8,0,10.8
			c0,1.2,0.3,2.1,2.1,2.1l-0.1,1.3C116.2,333.6,114.8,332.7,114.6,330.5L114.6,330.5z M114.4,322.6c-7.8,0.8-10.5,2.7-10.5,5.6
			c0,2.5,2.1,3.9,4.7,3.9c2.5,0,4.6-1.6,5.8-3.1V322.6z"/>
		<path class="st0" d="M131.1,333.6c-5.7,0-9.7-4.3-9.7-10.3s4-10.5,9.4-10.5c2.3,0,4.4,0.6,6,1.7l-0.4,1.6
			c-1.4-0.9-3.3-1.6-5.6-1.6c-4.5,0-7.6,3.7-7.6,8.7c0,5.1,3.1,8.7,7.8,8.7c1.9,0,3.9-0.7,5.3-1.7l0.4,1.6
			C135.2,332.9,133.2,333.6,131.1,333.6z"/>
		<path class="st0" d="M142.7,323.2c0,5,2.8,8.7,7.3,8.7c2.3,0,4.1-0.7,5.6-1.7l0.4,1.6c-1.6,1-3.7,1.7-6.1,1.7c-5.4,0-9-4.3-9-10.3
			s3.7-10.5,8.9-10.5c3.9,0,6.9,2.6,6.9,6.9c0,1-0.2,2.3-0.4,3.1l-13.6,0.1V323.2z M154.7,321.3c0.1-0.5,0.1-1,0.1-1.5
			c0-3.1-2-5.3-5.1-5.3c-3.7,0-6.3,2.8-6.9,6.8H154.7z"/>
		<path class="st0" d="M-12.4,343.4l1.8-0.6v29.9h-1.8v-2c-1.2,1.1-3.4,2.4-6,2.4c-5.1,0-9-4-9-10.1c0-6.3,4-10.5,9.6-10.5
			c2,0,4,0.7,5.4,1.5V343.4z M-17.9,354.2c-4.5,0-7.6,3.5-7.6,8.9c0,4.8,2.9,8.5,7.3,8.5c2.2,0,4.4-1.1,5.9-2.6v-13.2
			C-13.7,354.9-15.9,354.2-17.9,354.2z"/>
		<path class="st0" d="M-3.4,362.7c0,5,2.8,8.7,7.3,8.7c2.3,0,4.1-0.7,5.6-1.7l0.4,1.6c-1.6,1-3.7,1.7-6.1,1.7c-5.4,0-9-4.3-9-10.3
			s3.7-10.5,8.9-10.5c3.9,0,6.9,2.6,6.9,6.9c0,1-0.2,2.3-0.4,3.1l-13.6,0.1V362.7z M8.6,360.8c0.1-0.5,0.1-1,0.1-1.5
			c0-3.1-2-5.3-5.1-5.3c-3.7,0-6.3,2.8-6.9,6.8H8.6z"/>
		<path class="st0" d="M20.6,373.1c-2.3,0-4.5-0.7-6-1.7l0.6-1.7c1.7,1.1,3.6,1.8,5.6,1.8c2.5,0,5-1.3,5-3.9c0-2.9-2.7-3.6-5.3-4.5
			c-2.7-0.9-5.6-2.2-5.6-5.5c0-3.6,2.8-5.4,6.3-5.4c2.1,0,4.1,0.7,5.7,1.4l-0.6,1.6c-1.7-0.9-3.3-1.5-5.2-1.5
			c-2.7,0-4.5,1.4-4.5,3.7c0,2.6,2.6,3.4,5.2,4.3c2.7,0.9,5.7,2.1,5.7,5.7C27.4,371,24.3,373.1,20.6,373.1z"/>
		<path class="st0" d="M33.7,348c-0.8,0-1.3-0.7-1.3-1.4c0-0.7,0.5-1.3,1.3-1.3s1.3,0.7,1.3,1.3C35,347.3,34.5,348,33.7,348z
			 M32.8,372.7v-19.8l1.8-0.6v20.3H32.8z"/>
		<path class="st0" d="M40.1,369.5c0-1.7,1.6-3,3.2-3.7c-1.7-1.1-3.1-3.3-3.1-6c0-4.6,3.3-7.4,7.5-7.4c2,0,3.3,0.6,4.3,1.2l5.9-0.3
			l0.1,1.8l-5-0.2c1.1,1.2,1.9,3.2,1.9,4.9c0,4.5-3.3,7.3-7.6,7.3c-1.1,0-2.3-0.3-3.1-0.7c-1.3,0.6-2.5,1.5-2.5,2.7
			c0,1.3,1.1,2.2,4.5,2.2c0,0,3.5,0,3.3,0c5.6,0,7.9,2.1,7.9,5.1c0,4.3-5.1,7.1-10.2,7.1c-5.5,0-8.7-2.5-8.7-5.8
			c0-2.3,2-4.4,4.4-5.3C41.2,371.9,40.1,370.9,40.1,369.5z M40.2,377.5c0,2.6,2.6,4.5,7.3,4.5c4.5,0,8.3-2.4,8.3-5.4
			c0-2.6-2.3-3.7-6.2-3.7c-1.4,0-3.3,0-4.7-0.1C42.1,373.5,40.2,375.5,40.2,377.5z M47.5,365.5c3.5,0,5.7-2.5,5.7-5.8
			c0-3.3-2-5.9-5.6-5.9c-3.6,0-5.7,2.6-5.7,6C41.9,362.9,44,365.5,47.5,365.5z"/>
		<path class="st0" d="M75,372.7v-13.2c0-3.5-1.5-5.5-4.7-5.5c-2.3,0-4.7,1.3-6.9,3.4v15.3h-1.8v-19.8l1.8-0.6v3.5
			c2.3-2.3,5.2-3.5,7.1-3.5c3.9,0,6.3,2.3,6.3,6.7v13.6H75z"/>
	</g>
</g>
</svg>
