<?xml version="1.0" encoding="utf-8"?>
<!-- Generator: Adobe Illustrator 19.0.1, SVG Export Plug-In . SVG Version: 6.00 Build 0)  -->
<svg version="1.1" id="Layer_1" xmlns="http://www.w3.org/2000/svg" xmlns:xlink="http://www.w3.org/1999/xlink" x="0px" y="0px"
	 viewBox="-107 124.7 383.3 353.3" style="enable-background:new -107 124.7 383.3 353.3;" xml:space="preserve">
<style type="text/css">
	.st0{fill:#19181D;}
	.st1{fill:#FFFFFF;}
</style>
<g id="Layer_2">
</g>
<g id="Layer_1_1_">
	<g>
		<path class="st0" d="M24.5,478c-23.1,0-51.4-16.4-63-36.4l-59.9-103.9c-11.6-20-11.6-52.7,0-72.7l60-103.9
			c11.5-20,39.9-36.4,63-36.4h120c23.1,0,51.5,16.4,63,36.4l60,103.9c11.6,20,11.6,52.7,0,72.7l-60,103.9
			c-11.5,20-39.9,36.4-63,36.4H24.5z"/>
		<path class="st1" d="M108.7,364.7c-18.1,0-32.8-14.9-32.8-33.3v-5.7h12v5.7c0,11.5,9.5,21.3,20.8,21.3h54.8
			c11.3,0,20.4-9.5,20.4-21.3v-60.2c0-11.5-9-20.6-20.4-20.6h-54.8c-11.5,0-20.8,9.2-20.8,20.6v23.5h-12v-23.4
			c0-11.3-9.5-20.6-21.1-20.6H5.6c-11.6,0-20.7,9-20.7,20.6v86.4h-12v-86.4c0-18.3,14.4-32.6,32.7-32.6h49.2c9.3,0,17.8,3.6,24,10.2
			l2.9,2.8l2.9-2.7l0,0c6.2-6.6,14.8-10.3,24-10.3h54.8c18.4,0,33.4,14.6,33.4,32.6v60.2c0,18-15.3,33.3-33.4,33.3h-54.7V364.7z"/>
	</g>
</g>
</svg>
