<?xml version="1.0" encoding="utf-8"?>
<!-- Generator: Adobe Illustrator 19.0.1, SVG Export Plug-In . SVG Version: 6.00 Build 0)  -->
<svg version="1.1" id="Layer_1" xmlns="http://www.w3.org/2000/svg" xmlns:xlink="http://www.w3.org/1999/xlink" x="0px" y="0px"
	 viewBox="0 0 383.3 353.3" enable-background="new 0 0 383.3 353.3" xml:space="preserve">
<path fill="#142956" d="M131.6,353.3c-23.1,0-51.4-16.4-63-36.4L8.7,213c-11.6-20-11.6-52.7,0-72.7l60-103.9
	c11.5-20,39.9-36.4,63-36.4h120c23.1,0,51.5,16.4,63,36.4l60,103.9c11.6,20,11.6,52.7,0,72.7l-60,103.9c-11.5,20-39.9,36.4-63,36.4
	H131.6z"/>
<g>
	<g>
		<path fill="#FFFFFF" d="M143,145.3v-33.8h16.6c6.2,0,9.6,3.8,9.6,8.6c0,4.2-2.7,7.1-5.9,7.7c3.6,0.6,6.5,4.2,6.5,8.3
			c0,5.3-3.4,9.2-9.8,9.2H143z M163.2,121.1c0-2.5-1.7-4.4-4.7-4.4h-9.5v8.7h9.5C161.5,125.4,163.2,123.6,163.2,121.1z M163.8,135.3
			c0-2.5-1.8-4.7-5.1-4.7h-9.8v9.4h9.8C161.9,140,163.8,138.3,163.8,135.3z"/>
		<path fill="#FFFFFF" d="M176.9,131.9v-20.4h6v20.3c0,5.4,3,8.9,8.6,8.9c5.6,0,8.6-3.5,8.6-8.9v-20.3h6v20.4c0,8.4-4.8,14-14.6,14
			C181.8,145.9,176.9,140.2,176.9,131.9z"/>
		<path fill="#FFFFFF" d="M233.8,145.3l-7.4-12.6h-5.9v12.6h-5.9v-33.8h14.8c6.7,0,11.1,4.3,11.1,10.6c0,6-3.9,9.3-8.1,9.9l8.3,13.3
			H233.8z M234.3,122c0-3.2-2.4-5.3-5.8-5.3h-8.2v10.7h8.2C231.9,127.4,234.3,125.3,234.3,122z"/>
		<path fill="#FFFFFF" d="M143,193.5v-33.8h23.1v5.2h-17.2v8.7h16.9v5.2h-16.9v9.4h17.2v5.2H143z"/>
		<path fill="#FFFFFF" d="M198.4,193.5l-2.5-6.5h-15.5l-2.5,6.5h-6.7l13.3-33.8h7.4l13.3,33.8H198.4z M188.2,165.7l-6.1,16.1h12.2
			L188.2,165.7z"/>
		<path fill="#FFFFFF" d="M211.3,180.1v-20.4h6V180c0,5.4,3,8.9,8.6,8.9c5.6,0,8.6-3.5,8.6-8.9v-20.3h6v20.4c0,8.4-4.8,14-14.6,14
			C216.1,194.1,211.3,188.5,211.3,180.1z"/>
	</g>
	<g>
		<path fill="#FFFFFF" d="M142.6,224.3c0-9.8,4.6-17.5,12.8-17.5c8.3,0,12.9,7.7,12.9,17.5s-4.6,17.5-12.9,17.5
			C147.2,241.8,142.6,234.1,142.6,224.3z M164.1,224.3c0-7.8-3.1-13.9-8.7-13.9c-5.6,0-8.7,6.1-8.7,13.9c0,7.7,3,13.9,8.7,13.9
			C161.1,238.2,164.1,232,164.1,224.3z"/>
		<path fill="#FFFFFF" d="M180.6,241.2v-33.8h15c5.9,0,9.5,3.5,9.5,8.6c0,4.3-2.8,7.1-5.9,7.7c3.6,0.6,6.6,4.3,6.6,8.3
			c0,5.4-3.6,9.1-9.8,9.1H180.6z M200.8,216.6c0-3-2-5.5-5.8-5.5h-10.1v10.9h10.1C198.7,222.1,200.8,219.7,200.8,216.6z
			 M201.4,231.6c0-3.1-2.1-5.8-6.2-5.8h-10.4v11.6h10.4C199.1,237.5,201.4,235.2,201.4,231.6z"/>
		<path fill="#FFFFFF" d="M236.1,241.2v-15.6h-14v15.6H218v-33.8h4.1v14.6h14v-14.6h4v33.8H236.1z"/>
	</g>
</g>
<path fill="#FFFFFF" d="M155,286c-14.7,0-32.7-10.2-40-22.9l-36.7-63.4c-7.4-12.7-7.4-33.4,0-46.2l36.7-63.9
	c7.4-12.7,25.3-23.5,40-23.5h73.4c14.7,0,32.7,10.8,40,23.6l36.7,63.8c7.4,12.7,7.4,33.6,0,46.3L268.4,263c-7.4,12.7-25.3,23-40,23
	H155z M155,70c-13.4,0-30.3,10-37,21.6l-36.7,63.6c-6.7,11.6-6.7,31.2,0,42.8l36.7,63.1c6.7,11.6,23.6,20.9,37,20.9h73.4
	c13.4,0,30.3-9.3,37-20.9l36.7-63.3c6.7-11.6,6.7-31,0-42.6l-36.7-63.7c-6.7-11.6-23.6-21.5-37-21.5H155z"/>
</svg>
