<?xml version="1.0" encoding="UTF-8"?>
<svg width="28px" height="25px" viewBox="0 0 28 25" version="1.1" xmlns="http://www.w3.org/2000/svg" xmlns:xlink="http://www.w3.org/1999/xlink">
    <!-- Generator: Sketch 50.2 (55047) - http://www.bohemiancoding.com/sketch -->
    <title>Double Arrows</title>
    <desc>Created with Sketch.</desc>
    <defs></defs>
    <g id="Double-Arrows" stroke="none" stroke-width="1" fill="none" fill-rule="evenodd">
        <path d="M16.9999995,17.5 C16.9999995,17.9155306 16.6939618,18.2523846 16.3164451,18.2523846 L4.33145928,18.2523846 L7.47580918,21.713354 C7.64879158,21.9037548 7.71634889,22.18127 7.65303294,22.4413624 C7.58971699,22.7014547 7.40514697,22.9046099 7.16884863,22.9743015 C6.93255028,23.043993 6.68042295,22.969633 6.50744055,22.7792322 L2.2010483,18.0266692 C2.07234332,17.8854954 2,17.6937276 2,17.4937301 C2,17.2937326 2.07234332,17.1019649 2.2010483,16.960791 L6.50744055,12.2207678 C6.68042295,12.030367 6.93255028,11.956007 7.16884863,12.0256985 C7.40514697,12.0953901 7.58971699,12.2985453 7.65303294,12.5586376 C7.71634889,12.81873 7.64879158,13.0962452 7.47580918,13.286646 L4.33145928,16.7476154 L16.3506228,16.7476154 C16.7147296,16.7676787 17.0004554,17.0987281 16.9999995,17.5 Z M25.9752956,7.27429286 C25.9417394,7.18062657 25.8914729,7.09534303 25.8274757,7.02349759 L21.5065856,2.22076814 C21.3339343,2.03036702 21.0822896,1.95600692 20.8464436,2.02569856 C20.6105976,2.0953902 20.4263809,2.29854577 20.3631861,2.55863852 C20.2999914,2.81873127 20.3674194,3.09624694 20.5400707,3.28664804 L23.6784014,6.74762279 L11.6822458,6.74762279 C11.4385029,6.74762278 11.2132751,6.8910267 11.0914036,7.12381569 C10.9695321,7.35660467 10.9695321,7.64341253 11.0914036,7.87620152 C11.2132751,8.1089905 11.4385029,8.25239443 11.6822458,8.25239442 L23.6784014,8.25239442 L20.5400707,11.7133692 C20.273175,12.0077038 20.273175,12.4849144 20.5400707,12.779249 C20.8069664,13.0735836 21.2396898,13.0735837 21.5065856,12.7792491 L25.8047342,8.03921844 C25.9932704,7.82729603 26.0511748,7.51292134 25.9525541,7.23667357 L25.9752956,7.27429286 Z" id="Shape" fill="#FFFFFF" fill-rule="nonzero"></path>
    </g>
</svg>