<?xml version="1.0" encoding="utf-8"?>
<!-- Generator: Adobe Illustrator 22.0.1, SVG Export Plug-In . SVG Version: 6.00 Build 0)  -->
<svg version="1.1" id="Layer_1" xmlns="http://www.w3.org/2000/svg" xmlns:xlink="http://www.w3.org/1999/xlink" x="0px" y="0px"
	 viewBox="0 0 300.7 57.7" style="enable-background:new 0 0 300.7 57.7;" xml:space="preserve">
<style type="text/css">
	.st0{fill:#FFFFFF;}
</style>
<g>
	<path class="st0" d="M71.1,7.3l-1.8,6.3H58.8l-1.1,8h9.3l-0.9,6.3h-9.3L55,40.7h-8.7l4.7-33.4H71.1z"/>
	<path class="st0" d="M81.9,7.3l-3.6,26.4h12.5l-1.9,6.9H68.5l4.7-33.4H81.9z"/>
	<path class="st0" d="M105.7,7.3L101,40.7h-8.7l4.7-33.4H105.7z"/>
	<path class="st0" d="M131.2,7.6c1.8,0.8,3.3,1.8,4.6,3.2l-4.8,4.3c-1-0.8-2-1.4-2.9-1.8c-0.9-0.4-2-0.6-3.2-0.6
		c-2.4,0-4.3,0.8-5.7,2.4s-2.4,3.7-3,6.1c-0.6,2.4-0.9,5-0.9,7.6c0,2.2,0.4,3.8,1.2,4.8c0.8,0.9,2,1.4,3.6,1.4
		c1.3,0,2.7-0.3,4.1-0.9l1-6.8h-3.8l0.1-6.1h13l-2.3,16.7c-1.9,1.2-3.9,2-6.1,2.7s-4.4,1-6.4,1c-4.5,0-7.8-1.1-10-3.4
		s-3.3-5.6-3.3-10c0-3.6,0.6-7.1,1.9-10.4c1.3-3.3,3.3-6,6.1-8.2c2.8-2.1,6.3-3.2,10.6-3.2C127.3,6.5,129.4,6.8,131.2,7.6z"/>
	<path class="st0" d="M144.2,40.7h-8.7l4.7-33.4h8.7l-1.8,12.6h8.6l1.8-12.6h8.7l-4.7,33.4h-8.7l1.9-13.9h-8.5L144.2,40.7z"/>
	<path class="st0" d="M194,7.3l-1.9,6.8h-7.7l-3.7,26.6h-8.7l3.7-26.6h-8.2l0.9-6.8H194z"/>
	<path class="st0" d="M216.2,9.7c2.2,1.6,3.3,4,3.3,7.1c0,2.2-0.5,4.3-1.5,6.2c-1,2-2.6,3.6-4.8,4.9c-2.2,1.3-5,1.9-8.4,1.9h-3.5
		l-1.5,10.8H191l4.7-33.4h11.2C210.9,7.3,214,8.1,216.2,9.7z M209.1,21.7c0.9-1.3,1.3-2.7,1.3-4.4c0-1.2-0.4-2.2-1.1-2.8
		c-0.7-0.6-1.9-0.9-3.4-0.9h-2.4l-1.4,10h2.5C206.8,23.6,208.3,23,209.1,21.7z"/>
	<path class="st0" d="M232.3,7.3l-3.6,26.4h12.5l-1.9,6.9h-20.4l4.7-33.4H232.3z"/>
	<path class="st0" d="M259.9,40.7l-0.5-6.8h-8.7l-2.4,6.8h-9.1l14.4-33.4h10.6l5,33.4H259.9z M252.9,27.5h6.1l-1.1-14.4L252.9,27.5z
		"/>
	<path class="st0" d="M296.1,40.7h-11l-5.1-26c0.1,1.6,0.1,3.3,0.1,5.1c0,3.4-0.2,6.8-0.7,10.1l-1.5,10.8h-7.7l4.7-33.4h10.9l5.2,26
		c-0.1-1.8-0.2-3.6-0.2-5.6c0-2.8,0.2-5.7,0.6-8.8L293,7.3h7.7L296.1,40.7z"/>
</g>
<path class="st0" d="M40.4,7.4c-0.8,0.3-39.1,13.8-39.8,14c-0.6,0.2-0.8,0.8,0,1.1c0.9,0.4,8.6,3.4,8.6,3.4l0,0l5.1,2
	c0,0,24.5-18,24.8-18.2c0.3-0.2,0.7,0.2,0.5,0.5c-0.2,0.3-17.8,19.2-17.8,19.2v0l-1,1.1l1.4,0.7l0,0c0,0,10.5,5.7,11.2,6.1
	c0.7,0.4,1.5,0.1,1.7-0.8c0.2-1,6.4-27.7,6.6-28.3C41.7,7.6,41.2,7.1,40.4,7.4z M14.1,40.2c0,0.6,0.3,0.7,0.7,0.3
	c0.6-0.5,6.4-5.8,6.4-5.8L14.1,31V40.2z"/>
</svg>
